<?xml version="1.0" encoding="utf-8"?>
<!-- Generator: Adobe Illustrator 24.2.1, SVG Export Plug-In . SVG Version: 6.00 Build 0)  -->
<svg version="1.1" id="Layer_1" xmlns="http://www.w3.org/2000/svg" xmlns:xlink="http://www.w3.org/1999/xlink" x="0px" y="0px"
	 viewBox="0 0 2670 1980" style="enable-background:new 0 0 2670 1980;" xml:space="preserve">
<style type="text/css">
	.st0{fill:#06070c;}
	.st1{fill:#666666;fill-opacity: 0.1;}
</style>
<g>
	<path class="st0" d="M2275.3,1000.1c-0.1,2.3,0,4.7,0,7c0,189.3,0,378.7,0,568c0,6,0.1,12.1-0.8,17.9c-2.4,15.2-12.9,17.4-23.6,10
		c-45.4-31-91.2-61.4-136.9-91.9l-30.1-20.3c-9.8-6.3-19.2-13.2-29.2-19.3c-6.7-4.1-9.8-9.7-9.9-17.2c-0.1-9.3-0.6-18.7-0.3-28
		c0.2-7.3-1.7-13-6.5-19c-18.6-23.3-36.2-47.3-56.9-69c-18-18.8-36.7-36.8-56.4-53.8c-31.8-27.5-65.4-52.7-101-74.9
		c-32.7-20.4-66.8-38.4-102.2-54c-50.7-22.4-103.2-39.2-157.1-51.5c-36.7-8.4-73.8-14.4-111.2-18.5c-34.5-3.8-69-6.5-103.7-5.8
		c-23.1,0.5-46.2-1.3-69.3,0.4c-22.9,1.8-45.9,3-68.7,5.6c-72.7,8.4-143.7,24.6-212.1,50.6c-65.5,24.8-127.4,57-184.9,97.4
		c-46.8,32.8-90.1,69.8-129.5,111.1c-18.1,19-35.1,39.2-50.5,60.6c-3.9,5.5-5.5,11-5.3,17.6c0.4,9.3,0,18.7,0,28
		c0,9.3-3.1,16.4-11.8,21.4c-10.4,5.9-19.9,13.4-30.1,19.8l-25.4,17.2c-11.6,7.8-23.3,15.5-34.9,23.3c-34.3,23-68.6,46-102.9,69
		c-14.6,9.7-23.6,5.5-25.2-12.1c-0.5-5.3-0.5-10.7-0.5-16c0-189.7,0-379.3,0-569l-0.1-26.1c0.2-190.3,0.1-380.7,0.2-571
		c0-5.7,0.4-11.3,0.5-17c0.1-3.7,1.2-7.3,3-10.5c3.4-5.9,9.3-7.7,15.4-4.8c2.7,1.3,5.1,3.1,7.6,4.8c44.3,29.6,88.5,59.3,132.8,88.9
		l29.7,20.1c10.8,6.6,20.9,14.3,31.7,20.9c6.7,4.1,9.7,9.8,9.8,17.3c0.2,11,0.4,22,0.2,33c-0.1,5.2,1.2,9.6,4.2,13.9
		c15.4,22.2,33,42.8,51.6,62.2c53.9,56.4,114.1,105.1,181.4,144.6c38.4,22.6,78.3,42.4,119.9,58.6c40,15.6,80.9,28.3,122.8,38
		c52.7,12.1,106,19.3,160,22.6c18.3,1.1,36.6,2.1,54.9,1.5c17.7-0.6,35.5,1.1,53.2-0.1c17.6-1.1,35.2-2.3,52.8-3.6
		c35.9-2.5,71.4-8.5,106.7-15.1c53.4-9.9,105.5-25,156-45.1c53.8-21.5,105.1-48.2,153.2-80.9c43.4-29.5,83.6-62.7,121.1-99.3
		c27.3-26.6,50.3-56.8,73.9-86.6c2.9-3.6,3.6-7.6,3.6-12.1c-0.1-10.7,0.2-21.3,0.4-32c0.1-7.5,3.2-13.1,9.9-17.2
		c10.2-6.2,19.9-13.4,30-19.8l23.2-16.3c4.2-1.3,7.4-4.3,11-6.7c42.9-28.7,85.8-57.4,128.7-86.1c1.1-0.7,2.3-1.4,3.3-2.3
		c10.9-9.1,21.4-4.7,23.8,10.7c0.8,5.6,0.6,11.3,0.6,17c0,189.3,0,378.7,0,568L2275.3,1000.1z M740,1203.1c-2-0.2-4-0.3-6-0.5
		c-0.5,2.5-4.8,2-4.2,5.8c2.9-1,6.4-1.2,4.2-5.8C735.8,1206,738.1,1202.3,740,1203.1c-0.6-0.7-0.5-1.3,0.2-1.7
		c-1.1-0.3-1.1-0.1-0.4,0.8C740,1202.3,739.9,1202.8,740,1203.1z M1935.5,780.5c-0.2,0.2-0.4,0.4-0.6,0.4c-0.3,0.1-0.6,0-0.8,0
		c0.4-0.2,0.8-0.5,1.1-0.8c1.4-0.9,2-1.9,0.5-3.3c3.2,1.1,6.1,1.2,7.9-2.8c-3.3-0.7-4.6,3.8-7.7,2.9
		C1935.7,778.2,1935.6,779.4,1935.5,780.5z M1934.8,1202.5c-0.1-0.2-0.1-0.4-0.2-0.6c0,0,0.1-0.1,0.1-0.1c0,0.2,0.1,0.3,0.1,0.5
		c3.1,1.6,5,5.7,11.3,5.1C1941.3,1205,1938.9,1202,1934.8,1202.5z M2072.4,516.6c-1,2.3-3.4,3-5.3,4.3c-7.4,5.1-8.2,7.2-5.3,17.8
		c4.2-6.5,8-12.6,11.9-18.6c1.1-1.7,0.9-3.1-1.3-3.6c0,1,0.3,1.8,1.4,2c0.2,0,0.4-0.4,0.6-0.7C2073.8,517.4,2073.1,517,2072.4,516.6
		z M599.6,517.5c-0.4-0.8-1.1-1.7-1.8-0.8c-0.8,0.8,0.1,1.5,1,1.6c2.4,8.9,7.5,16.2,13.4,24.1c2.3-16.5,1.9-17.3-10.7-24.4
		C600.9,517.6,600.2,517.6,599.6,517.5z M534.9,1353.5c-20,21.8-37.3,44.1-53.4,67.4c-16.1,23.4-26.8,49.5-41.8,73.5
		c9-21,17.4-42.2,28.9-61.9c16.9-28.7,35.4-56.4,57.5-81.5c0.9-1,1.6-2.1,2.6-3.1c2.9-2.9,3.3-6,2.3-10
		c-9.1-33.8-14.6-68.3-19.2-103c-5-38-8.3-76.1-10.6-114.3c-2.5-39.9-3.4-79.9-3.9-119.8c-0.1-5.1-1.4-6.8-6.7-6.9
		c-21.6-0.2-43.3-0.8-64.9-1.3c-2,0-4-0.4-6,0.8c0,195.2,0,390.5,0,585.6c2.1,0.6,3.1-0.4,4.1-1.1c52.7-33.8,105.3-67.7,158-101.4
		c3.6-2.3,5.7-5.4,7.3-9.1c6-13,12.5-25.8,20.8-37.4c4.2-5.9,3.9-11.9,2.5-19.1c-2.4,1.8-4,2.9-5.5,4.2
		c-13.9,12.6-32.1,8.7-42.7-2.9c-7.3-8-12.4-17.2-17.1-26.8C542.3,1375.7,539.4,1365.1,534.9,1353.5z M534.6,627.2
		c3.6-5,4.3-10.7,6.3-15.9c6.2-15.8,12.6-31.5,25.2-43.7c10.8-10.5,26.8-12.6,38.9-2.8c2.3,1.9,4.3,5,7.9,5
		c1.6-8.3-0.2-15.3-5.1-21.9c-7.4-9.9-12.7-21-17.8-32.3c-2.4-5.3-5.8-9.2-10.8-12.4c-50.5-32.2-100.9-64.7-151.3-97.1
		c-2.4-1.5-4.5-3.9-8.7-3.9c0,3.7,0,7.2,0,10.7c0,187.9,0,375.8,0,563.7c0,2,0.2,4,0,6c-0.6,4.9,1.4,6.3,6.2,6.1
		c13.6-0.6,27.3-0.7,41-1c8.3-0.2,16.7-0.6,25-0.4c4.9,0.1,6.7-1.8,6.1-6.4c-0.1-1,0-2,0-3c1.2-75,4.3-149.8,13.7-224.3
		c4.6-36.3,10-72.5,19.6-107.9c1.6-5.7,0.4-9.9-3.4-14.4c-10.7-12.8-21.7-25.4-31-39.1c-19-28.1-36.8-57-49.6-88.7
		c-2.2-5.4-5.5-10.4-6.2-16.6C465,538.3,494.6,586,534.6,627.2z M2060.9,1411.1c-2.3,8.5-0.1,15.1,4,21.4
		c5.9,9.3,13.4,18.1,17.1,28.2c3.9,10.7,10.9,16.6,19.9,22.4c47.8,30.3,95.3,61.1,143,91.7c2.7,1.7,5,4.3,9.5,4.5c0-3.4,0-6.6,0-9.8
		c0-188.3,0-376.6,0-565c0-2-0.1-4,0-6c0.2-3.4-1.1-5-4.6-4.8c-2.3,0.1-4.7,0-7,0.1c-20,0.6-40,1.2-60,1.9c-6.7,0.2-6.7,0.4-7,7.4
		c0,1.3,0,2.7-0.1,4c-0.4,60-3,119.9-8.9,179.7c-5,50.1-11.3,99.9-24,148.7c-1.4,5.2,0.1,8.3,3.5,12.3c15,17.8,29.6,36.1,42.4,55.5
		c20,30.4,36.1,62.9,49.3,96.8c3.2,8.2,5.7,16.6,6.8,25.4c-33.9-90.8-82.6-145-107.2-169.7c-4.1,11-7.5,22.1-12.7,32.5
		c-4.9,9.9-10.3,19.5-18.8,26.8c-7.1,6.1-15.1,8.9-24.8,7.5C2073.2,1421.4,2068.3,1415.5,2060.9,1411.1z M2244.8,454.3
		c0.6,4.5-0.2,6.7-0.8,8.9c-6.5,24.2-17,47-28.2,69.2c-18.9,37.2-43,71.2-70.4,102.8c-2.7,3.2-3.6,5.8-2.5,9.8
		c7.9,29.6,13.1,59.8,17.3,90.2c6.4,45.6,10.2,91.3,12.8,137.3c2,35.3,2.6,70.6,3.1,105.9c0.1,7.6,0.2,7.6,7.6,7.8
		c17,0.5,34,1,51,1.4c5,0.1,10,0.2,15,0.5c3.2,0.1,5.1-0.9,4.9-4.5c-0.1-1.7,0-3.3,0-5c0-189.6,0-379.3-0.1-568.9
		c0-2.4,1.1-5.2-1.2-7.3c-0.8,0.1-1.6,0-2.1,0.4c-52.7,33.8-105.3,67.7-158,101.5c-2,1.3-3.7,2.6-4.7,4.9c-6.9,16-16.9,30.1-25.8,45
		c-3.1,5.2-3.4,10.2-2,15.7c2.6,0.1,3.5-1.6,4.6-2.6c15.7-13.9,33-10.6,45.6,3.8c6,6.8,10.4,14.6,14.4,22.7
		c5.1,10.3,8.3,21.3,12.8,32.9C2185.2,576.1,2221.7,520.5,2244.8,454.3z M553.7,662.8c-0.3,1.3-0.7,2.8-1,4.3
		c-7.1,31.2-11.7,62.8-15.4,94.5c-7.1,59.9-10.3,120.1-11.8,180.4c-0.3,13-0.2,26-0.5,39c-0.1,4.4,1.5,5.7,5.7,5.6
		c25-0.5,50-0.7,74.9-1.1c7.4-0.1,7.6-0.2,7.6-7.8c0-85.6,0-171.2,0.1-256.8c0-5.3-1.7-8.5-5.8-11.7c-16.6-12.8-32.4-26.6-46.9-41.9
		C559,665.6,557.6,663,553.7,662.8z M553.6,1319.7c2.1-1,2.8-1.2,3.2-1.6c16.4-17.1,34-32.9,52.7-47.4c3-2.4,3.8-5,3.8-8.6
		c-0.1-13.3-0.1-26.7-0.1-40c0-72.3,0-144.7,0-217c0-10.3,0.4-9-9.2-9.2c-23.3-0.4-46.7-0.8-70-1.1c-2.8,0-5.9-1-9.3,1.5
		C526.2,1104.4,531.1,1212.3,553.6,1319.7z M2119.8,1319.2c4.8-20.9,8.3-40.2,11.1-59.6c5.8-39.5,9.8-79.2,12.5-119.1
		c3.1-45.5,4.7-91.1,5.1-136.7c0.1-7.6-0.1-7.7-7.6-7.7c-24.3,0.1-48.6,0.3-72.9,0.5c-7.9,0.1-8,0.1-8,8.5c0,84.6,0,169.1-0.1,253.7
		c0,5.6,1.7,9.3,5.9,12.7c12.1,9.9,24.2,19.9,36,30.1C2107.7,1306.9,2113.1,1312.7,2119.8,1319.2z M2120.4,664.4
		c-2.1-0.6-2.9-0.1-3.6,0.7c-15.2,16.5-33.1,29.9-50.2,44.2c-4.8,4-6.8,8-6.8,14.3c0.3,32,0.2,64,0.2,96c0,52.3,0,104.6,0,157
		c0,8.1,0.1,8.2,8.2,8.2c18.3,0.2,36.7,0.2,55,0.4c6.7,0.1,13.3,0.1,20,0.3c3.7,0.1,5.7-1.1,5.4-5.1c-0.2-2.3,0-4.7-0.1-7
		c-0.5-45-2.1-89.9-5.2-134.8C2139.2,780.1,2132.7,721.9,2120.4,664.4z M878.7,1138.5c-36,15-69.8,32.9-102.3,53.1
		c-3.4,2.1-4.9,4.7-5.7,8.6c-2.8,14.4-5.7,28.8-12.2,42c-3.6,7.3-7.7,14.4-17.3,14.4c-9.6,0-13.4-7.4-17.4-14.4
		c-1.9-3.2-2-7.6-5.4-9.8c-22.3,17.4-41.6,37.2-58.8,58.9c-5.8,7.3-10.2,15.3-12,24.8c-3.8,20.3-9.1,40.2-16.7,59.5
		c-2.6,6.7-1.3,13.3-1.5,20.3c1.5-0.4,2-0.3,2.1-0.5c3.2-3.8,6.4-7.6,9.4-11.6c31.2-40.5,66-77.4,105.4-110.2
		c36.9-30.8,75.6-59.1,117.2-83.1c54.3-31.2,110.9-57.4,170.8-76.4c38.4-12.2,77.4-21.8,117-29.2c9.5-1.8,19.1-3,28.6-4.6
		c1.5-0.3,3.8,0.3,4.4-1.5c1.4-3.9,0.6-8-0.4-11.7c-1-3.6-4.5-1.7-6.9-1.5c-40.6,3.2-80.4,11-120.4,18c-7,1.2-10.4,4.1-10.9,11.2
		c-0.3,3.8-0.5,9.1-5.8,9c-4.6-0.1-4.7-5-5.3-8.5c-0.7-4.5-2.4-6-7.3-4.9c-39.3,9.1-78,19.9-115.5,34.7c-4.6,1.8-7.1,4.2-7.8,8.9
		c-0.9,5.9-2.2,11.8-5.2,17.1c-4.1,7.1-10.6,7.2-14.6,0C881.9,1147.7,880.7,1143.4,878.7,1138.5z M1032.8,891.9
		c0.9-3.8,1.6-6.7,2.4-9.5c0.7-2.3,1.7-4.6,4.4-4.9c3.4-0.3,4.4,2.3,5.3,4.9c0.4,1.3,0.8,2.6,0.8,3.9c0.1,7.7,4.5,10.4,11.7,11.6
		c32.5,5.5,64.8,11.9,97.5,15.7c7.9,0.9,15.9,1.7,23.8,2.4c1.9,0.2,4,0.7,5.3-1.6c3.5-6.5,0.3-13-7-14.2c-1-0.2-2-0.2-3-0.4
		c-42.6-5.8-84.2-15.9-125.4-28.2c-41.8-12.4-82.5-28.2-121.6-47.1c-51-24.6-99.8-53.3-144.7-87.9c-20.6-15.8-40.9-32.1-59.9-49.7
		c-29.1-26.9-56.4-55.7-80.1-87.7c-3.7-4.9-7.7-9.6-11.6-14.3c-0.8,7.6-2.4,14.7,0.5,21.8c7.4,18.2,12.4,37.2,16,56.5
		c1.7,9.1,5,17.3,10.6,24.4c9.2,11.4,18.5,22.8,28.7,33.3c9.9,10.1,21.1,19,32.2,28.9c3.8-6.5,5.6-13,9.8-18.2
		c7.7-9.4,17.7-9.5,25.3-0.1c3.6,4.5,5.7,9.7,7.8,15c4.3,10.9,6.8,22.3,8.9,33.7c0.9,5.2,3.3,8.1,7.5,10.7
		c21.9,13.4,44.1,26,67.3,37.1c10.9,5.2,22.1,10,33.5,15.2c1.8-4.8,3.1-8.6,4.7-12.2c1.6-3.5,4.2-6.3,8.3-6.1
		c3.6,0.2,5.8,2.9,7.3,6.1c2.4,5.2,3.8,10.6,4.8,16.2c0.8,4.6,2.9,7.2,7.7,9C950.6,871.5,990.8,883,1032.8,891.9z M1953.8,1233.7
		c-2.9,5.8-4.9,11.5-8.8,16.2c-7.6,9.3-17.8,9.3-25.3,0c-3.4-4.2-5.5-9-7.5-14c-4.4-11.5-7.2-23.5-9.4-35.7
		c-0.7-3.9-2.4-6.4-5.8-8.6c-30.4-19.4-62.4-35.6-95-50.8c-6.9-3.3-7-3-9.9,4.7c-0.7,1.9-1.5,3.7-2.3,5.5c-1.6,3.1-3.7,5.6-7.6,5.6
		c-3.8,0-5.9-2.5-7.6-5.6c-2.9-5.4-4.3-11.3-5.1-17.2c-0.7-5-3-7.3-7.5-9.1c-37.8-15.2-77.3-24.6-116.7-34.3c-3.8-0.9-5.4,0.2-6.2,4
		c-0.7,3.9-0.2,9.9-6.3,9.5c-5-0.3-5.1-6.1-5.3-9.6c-0.4-6.6-3.3-8.9-9.6-10c-32.8-5.6-65.4-12.2-98.6-15.7
		c-8.3-0.9-16.5-2.1-24.8-2.7c-5.4-0.4-7.1,1.2-7.5,6.6c-0.3,3.9-1.3,8,5.2,8.4c6.3,0.4,12.4,2.1,18.7,3.1
		c47.7,7.5,94.4,19.1,140.3,34.3c42.4,14,83.5,31.2,123,52c46.3,24.4,90.2,52.6,131,85.6c48.5,39.1,93.7,81.2,129.4,132.6
		c1.9,2.8,4.8,7.5,7.3,6.7c4.5-1.5,1.4-6.8,2.1-10.4c0.6-3.4-0.5-6.6-1.8-9.7c-7.8-19.5-12.6-40-17.1-60.4c-1.1-5.1-3-9.4-6-13.5
		c-17-22.8-36.7-43.1-57.6-62.2C1959.6,1237.1,1957.6,1234.7,1953.8,1233.7z M2043.6,585.1c-4.2,2.7-6.2,6.2-8.5,9.2
		c-29.9,40.3-64.6,76.1-102.5,109c-33.8,29.3-69.5,56.2-107.6,79.4c-51.8,31.6-106.3,57.7-163.9,77.3
		c-40.7,13.8-82.1,24.9-124.2,33.1c-13.7,2.7-27.6,4.7-41.3,7c-2.2,0.4-5.3-0.1-6.2,2.4c-1.4,3.8-1.1,8.2,0.3,11.7
		c1.4,3.5,5.3,1.6,8.1,1.3c40.1-4.2,79.8-10.7,119.5-18.1c6.2-1.2,10.4-2.7,10.5-10.2c0-3.5,0.3-9.3,5.4-9.5c6-0.3,5.5,5.7,6.2,9.6
		c0.7,3.9,2.3,4.9,6.1,3.9c10-2.7,20-5.1,30-7.5c28.5-6.9,56.4-15.6,83.9-25.7c6.8-2.5,10.2-6.3,11-13.3c0.5-5,2-9.8,4.5-14.2
		c4.2-7.6,10.8-7.6,15.1,0.1c1.6,2.9,2.5,6.2,3.4,9.3c0.9,2.9,2.5,3.5,5.2,2.2c2.4-1.2,5-1.9,7.3-3.1c26.6-13.1,53.2-26,78.7-41.2
		c11.9-7.1,19.6-14.7,21.3-29.3c1.4-12.4,5.5-24.8,12.8-35.4c8.1-11.7,19.5-11.7,27.5,0.1c3.1,4.6,5.4,9.7,8.2,14.9
		c1.9-1.4,3.6-2.5,5.1-3.8c22.2-19.8,42.7-41.1,60.6-64.9c2.6-3.5,4.3-7.3,5.2-11.7c4.5-21.2,9.6-42.2,17.6-62.4
		C2045.3,599.2,2044.5,592.6,2043.6,585.1z M777.2,1163.8c1.2,0.2,1.6,0.4,1.9,0.3c30.4-14.3,60.9-28.3,92.6-39.6
		c4.2-1.5,4.4-3.7,3.9-7.5c-4.5-37.4-6.3-75-6.5-112.6c0-7.8-0.2-7.9-8.5-7.9c-22,0-44,0-65.9,0c-8.6,0-8.8,0.1-8.8,8.7
		c-0.4,45.3-2.2,90.5-6.6,135.6C778.4,1148.4,776.3,1155.9,777.2,1163.8z M776.8,817.8c0.3,3.8,0.5,7.1,0.9,10.4
		c2.5,21.2,4.1,42.4,5.5,63.7c1.8,28.6,2.3,57.2,2.7,85.9c0.1,7.1,0.3,7.3,7.2,7.3c22.6,0.1,45.3,0.1,67.9,0.1
		c8.8,0,8.1-0.2,8.1-8.3c0.1-37,1.9-73.9,6.4-110.6c0.7-5.8-0.5-8.2-6-10.1c-29.5-10.3-58-23.3-86.2-36.8
		C781.5,818.4,779.9,817.2,776.8,817.8z M1896.4,1163.9c1-2.7,0.2-5.3-0.1-7.9c-2.4-19.8-3.9-39.8-5.3-59.7
		c-2.1-30.3-2.5-60.6-3.3-90.9c-0.2-8.7-0.2-8.8-8.6-8.8c-16.7-0.1-33.3,0-50-0.1c-6.3,0-12.7,0.2-19-0.1c-3.9-0.1-5.5,1.4-5.2,5.3
		c0.1,1.7,0.1,3.3,0,5c-1.1,36-2,72-6.4,107.7c-0.9,7.7-1.1,7.9,6.3,10.6c28.5,10.4,56.1,22.9,83.3,36.1
		C1890.6,1162.4,1893.1,1164.4,1896.4,1163.9z M1896.8,817.7c-2.5-0.3-4.3,0.6-6.1,1.5c-6,2.9-12,5.6-18,8.6
		c-22.1,10.9-44.9,20.1-67.9,28.7c-7.5,2.8-7.3,3-6.5,10.6c1,8.9,1.9,17.9,2.7,26.8c2.4,28.2,3.2,56.5,3.6,84.7
		c0.1,5.4,1.8,6.7,6.8,6.6c22.6-0.2,45.3-0.1,67.9-0.2c1,0,2-0.1,3,0c3.8,0.3,5.6-1.2,5.2-5.1c-0.2-1.6,0-3.3,0.1-5
		c0.7-38.6,1.7-77.2,5.2-115.6C1894.1,845.4,1895.5,831.6,1896.8,817.7z M908.3,1109.6c1.4,0,2.4,0.2,3.2,0
		c37.8-11.7,75.5-24,114.2-32.5c4.5-1,5.8-2.9,5.5-7.4c-1.3-22-2.5-43.9-2.3-65.9c0.1-7.3-0.2-7.4-8-7.4c-33.3,0-66.7,0.1-100,0.2
		c-7.7,0-7.9,0.1-7.9,7.5c0,31-1.6,61.9-4,92.9C908.8,1101,907.3,1105.2,908.3,1109.6z M1765.3,1110.4c0-2.5,0.1-3.5,0-4.4
		c-3.1-33.9-4.7-67.8-4.8-101.8c0-7.4-0.4-7.6-8.2-7.7c-33.3-0.1-66.7-0.2-100-0.2c-7.3,0-7.2,0.1-7.5,7.9c-0.7,21-1.1,42-2.3,62.9
		c-0.5,9-1.3,8.3,7.6,10.4c29.8,7.1,59.4,14.9,88.5,24.5C1747.2,1104.8,1755.7,1107.4,1765.3,1110.4z M908.8,872.2
		c-0.2,0.3-0.6,0.6-0.6,0.8c2.8,35.5,5.2,71,4.8,106.7c-0.1,4.6,1.9,5.6,6,5.6c34.7-0.1,69.3-0.1,104,0.1c4.9,0,6.2-1.8,6.1-6.4
		c-0.5-22,0.8-44,2.1-65.9c0.3-5.2-0.9-7.7-6.4-8.8c-36.9-7.6-72.4-20.1-108.5-30.5C913.8,873,911.6,871.1,908.8,872.2z
		 M1765.6,872.4c-3.2-0.6-5.1,0.3-7,0.9c-22.2,6.7-44.2,14.5-66.7,20.3c-14.5,3.7-29,7.3-43.5,10.8c-4.4,1.1-6.5,2.6-6.2,8
		c1.3,21.9,1.8,43.9,2.6,65.8c0.2,7,0.2,7.1,7.1,7.1c33.6,0,67.2,0,100.8-0.1c7.5,0,7.7-0.2,7.7-7.8c0.2-24.6,0.9-49.2,2.6-73.8
		C1763.8,893.4,1764.7,883.1,1765.6,872.4z M725.8,1192.5c8.7-4.8,15.8-9.8,23.8-12.8c9.6-3.7,12.7-10.5,13-19.7
		c0.1-1.3,0.2-2.7,0.4-4c3.4-27.1,5.6-54.3,6.7-81.5c1-23.6,1.5-47.2,2-70.8c0.2-7-0.1-7-7.3-7.1c-6.7-0.1-13.3,0-20,0
		c-9,0-18,0.2-27,0c-4.2-0.1-6.2,1.3-5.9,5.7c0.2,2.3,0,4.7,0.1,7c0.8,27.6,1.2,55.2,3,82.8C717,1125.1,719.9,1158.2,725.8,1192.5z
		 M1946.2,1191.7c2.9-2.2,2.4-4.7,2.8-6.9c4.5-26.6,6.9-53.5,8.9-80.4c2.5-33.9,3.2-67.9,3.7-101.8c0.1-5-1.8-6.2-6.4-6.1
		c-15.3,0.2-30.6,0-46,0.1c-7.6,0-7.8,0.2-7.7,7.8c0.7,44,2,87.9,6.7,131.6c1.1,10.3,2.2,20.5,3.5,30.7c0.4,2.8,0.2,6,3.5,7.8
		C1925.8,1180.2,1936.2,1186.1,1946.2,1191.7z M1947.7,789.1c-9.1,5-16.9,10.1-25.3,13.8c-8.2,3.6-10.5,9.5-11.5,17.8
		c-3,27.1-5.6,54.3-6.9,81.6c-1.2,25.3-1.5,50.6-2.5,75.9c-0.2,5.1,1.5,7,6.7,7c15-0.3,30-0.1,45-0.2c8.6,0,8.4,0.6,8.3-8.9
		c-0.3-30.6-1-61.3-3.1-91.9C1956.3,852.9,1953.6,821.8,1947.7,789.1z M726,789.2c-3.3,16.4-5.1,31.3-6.7,46.2
		c-4.6,42.4-6.3,85-7.3,127.7c-0.1,5.7,0,11.3-0.2,17c-0.1,3.4,1.4,4.8,4.7,4.8c17,0,34,0,51,0.1c3.6,0,4.6-1.9,4.4-5
		c-0.1-2.3-0.1-4.7-0.1-7c-0.5-37.3-1.7-74.6-5-111.8c-1.4-15.9-2.8-31.9-5.5-47.6c-0.4-2.6-0.3-5.2-3.2-6.8
		C747.6,801.1,737.2,795.4,726,789.2z M1625.1,910.5c-9.8,1.8-18,3.4-26.2,4.6c-23.3,3.5-46.2,9.9-70,10
		c-10.9,0.1-21.8,2.4-32.7,3.7c-3.5,0.4-6.2,1.1-6,6c0.5,15,0.7,30,0.7,44.9c0,4.4,1.7,5.8,5.9,5.7c8.3-0.2,16.6,0,25-0.1
		c30.6,0,61.3,0,91.9-0.1c9,0,9-0.1,9.2-9.4c0.2-13,0.2-26,0.6-38.9C1623.7,928.4,1624.5,919.8,1625.1,910.5z M1625.2,1071.1
		c-2.2-23.8-2.3-46.1-2.4-68.4c0-4.5-1-6.6-6.1-6.6c-39.9,0.1-79.9,0.1-119.8-0.1c-5.1,0-6.1,2-6.1,6.5c0,14.6-0.1,29.3-0.6,43.9
		c-0.1,4.5,1.6,5.6,5.6,6.1c12.6,1.4,25,3.8,37.7,4c8,0.1,15.9,1.1,23.8,2.5C1579.5,1063,1601.7,1066.9,1625.2,1071.1z
		 M1049.3,1070.4c2.6,1,4.9-0.1,7-0.6c23-5.5,46.3-8.9,69.7-12.3c16.7-2.5,33.7-3.8,50.6-5.2c5.1-0.4,6.8-1.9,6.6-7
		c-0.4-14-0.3-27.9-0.5-41.9c-0.1-7-0.2-7.2-7.2-7.2c-39.3,0-78.5,0-117.8,0.1c-6.7,0-6.8,0.2-6.8,7.5c0,16.3-0.5,32.6-1.4,48.9
		C1049.3,1058.6,1048.4,1064.5,1049.3,1070.4z M1049.8,910.2c-0.4,1.2-0.8,1.8-0.8,2.4c0.6,22.6,2.5,45.2,1.9,67.8
		c-0.1,4.2,2.1,4.8,5.6,4.8c39.9,0,79.9-0.1,119.8,0.1c5.5,0,6.7-2.3,6.6-7.2c-0.2-11,0.1-22,0.2-32.9c0.1-15.9,0.1-15.5-16.3-17.4
		c-16.5-1.9-33.1-2.4-49.6-5.2C1094.7,918.9,1072,915.9,1049.8,910.2z M1260.5,985.4c21.6,0,43.2,0,64.9,0c9.1,0,9.1-0.1,9.1-9.4
		c0-10.3,0-20.6-0.1-30.9c-0.1-7.7-0.1-7.7-7.6-7.9c-2.3-0.1-4.7,0-7,0c-41.9,0-83.8-2.2-125.5-6.2c-4.6-0.4-5.9,0.9-6,5.1
		c-0.2,13.6-0.6,27.3-0.8,40.9c-0.1,8.3,0.1,8.4,8.1,8.4C1217.3,985.4,1238.9,985.4,1260.5,985.4z M1485,931.5
		c-3.1-1.4-5.4-0.6-7.7-0.4c-26.2,1.9-52.4,4.3-78.7,5.1c-17.3,0.5-34.6,1.3-51.9,1.1c-7.4-0.1-7.5,0.1-7.6,7.8
		c-0.1,11.7,0,23.3-0.1,35c0,3.7,1,5.8,5,5.5c2-0.1,4,0,6,0c41.6,0,83.2,0,124.9,0c2,0,4-0.1,6,0c3.3,0.1,5-1.2,4.9-4.6
		C1485.5,964.2,1485.3,947.6,1485,931.5z M1485,1051.1c0.3-17,0.5-33.6,0.9-50.1c0.1-4.2-2.2-4.8-5.7-4.8c-45,0.1-89.9,0.1-134.9,0
		c-4.7,0-6.5,1.4-6.3,6.2c0.3,12,0.4,24,0,36c-0.2,5.2,2.1,6,6.5,6c11.6-0.1,23.3,0.1,34.9,0.4
		C1415,1045.8,1449.5,1048.1,1485,1051.1z M1188.4,1050.6c47.5-3.4,93.2-6.8,139.2-6.4c0.7,0,1.3,0,2,0c3.2,0.2,4.9-0.9,4.9-4.5
		c-0.1-13,0-25.9,0-38.9c0-3.4-1.6-4.8-4.9-4.6c-1.7,0.1-3.3,0-5,0c-42.6,0-85.1,0-127.7,0c-1.7,0-3.3,0.1-5,0
		c-2.8-0.1-4.4,1.1-4.4,4.1C1187.9,1016.8,1188.1,1033.4,1188.4,1050.6z M2010.7,1230.1c0.9-7.3-0.9-13.8-1.5-20.3
		c-6.8-66-10.3-132.2-10.7-198.6c-0.1-16.1-0.3-16.3-16.8-14.7c-2.9,0.3-4.2,1.1-4.1,4.1c0.1,3,0,6,0,9
		c-0.3,41.3-2.1,82.6-6.1,123.8c-2,20.2-4.3,40.4-8.2,60.4c-0.9,4.8-0.2,7.8,4.5,10.4c10.2,5.7,19.9,12.2,29.8,18.3
		C2001.8,1225,2005.6,1228.2,2010.7,1230.1z M2011.2,752.5c-2.7-0.8-3.6,0.3-4.7,1c-13.3,8.3-26.4,16.7-39.8,24.7
		c-3.6,2.1-4.2,4.5-3.5,8.2c1.4,7.8,2.8,15.7,3.9,23.6c7.4,53.8,10.1,107.9,10.6,162.2c0.1,14.1-2.6,12.8,13.7,12.8
		c7,0,7-0.2,7.1-7.3c0.4-27.3,0.6-54.6,1.8-81.8c1.4-30.9,3.1-61.8,6.1-92.6C2008,786.3,2009.6,769.5,2011.2,752.5z M662.1,1231.5
		c3.7-2.4,5.6-3.7,7.5-4.9c11.6-7.7,22.9-16.2,35.5-22.2c5.3-2.5,6.2-5.5,5.1-11c-4.6-22.5-7-45.4-9-68.3
		c-3.5-39.9-5-79.8-5.4-119.8c-0.1-8.6-0.2-8.6-8.8-8.7c-1.3,0-2.7,0-4,0c-7.9,0.1-8,0.1-7.9,8.4c0,24.7-0.6,49.3-1.6,74
		c-1.3,32-3,63.9-6,95.8C665.8,1192.9,664.1,1211.1,662.1,1231.5z M662.9,752.1c-1,1.4-0.4,3-0.3,4.6c2,20.5,4.6,41.1,6,61.7
		c3.8,52.5,6.5,105.1,6.4,157.8c0,8.8,0.1,8.9,8.5,8.9c14.5-0.1,12.1,1.3,12.3-12.1c1.1-62.7,3.5-125.2,14.8-187
		c0.8-4.1-0.9-6-4.2-7.7c-13.4-6.8-25.6-15.5-38-23.9C666.8,753.1,665.5,751.1,662.9,752.1z M2044.3,728.6c-5.4,1.1-7.1,3.9-7.7,8.3
		c-1.7,14.9-4,29.7-5.6,44.6c-4.6,42.1-7.2,84.2-8.9,126.5c-1,25.3-1.3,50.5-1.3,76.8c6.5,0,12.4-0.1,18.3,0
		c3.8,0.1,5.5-1.4,5.2-5.3c-0.2-1.7,0-3.3,0-5c0-78.9,0-157.9,0-236.8C2044.3,734.9,2044.3,732,2044.3,728.6z M2044.3,1253
		c0-3.7,0-6.4,0-9c0-78.6,0-157.2,0-235.8c0-13,1.3-11.5-11.9-11.5c-13,0-11.5-1.8-11.5,11.8c0,59.3,3.1,118.5,8.7,177.6
		c1.9,19.5,4,39.1,7,58.5C2037.3,1248.9,2038.8,1251.8,2044.3,1253z M629.2,728.7c0,4.3,0,8,0,11.6c0,76.5,0,153.1,0,229.6
		c0,15.8,0,15.8,16,15.3c7.6-0.2,7.6-0.2,7.7-7.7c0.1-3.3,0-6.7,0-10c-0.8-55.6-3.1-111.1-8.5-166.4c-2-21.2-5-42.3-7.3-63.4
		C636.6,733.3,635,730.3,629.2,728.7z M629.2,1253.2c5.3-2.1,7.4-4.5,7.9-9.2c1.6-14.9,4-29.7,5.5-44.6
		c6.5-62.4,9.5-124.9,10.3-187.6c0.2-15.6,0.1-15.6-15-15.6c-9,0-8.8-0.6-8.7,8.6c0,2,0,4,0,6c0,75.7,0,151.3,0,227
		C629.2,1242.5,629.2,1247.2,629.2,1253.2z M2060,697.5c19-15.9,36.7-29.3,52.3-45.3c3.5-3.5,3.7-6.7,2.4-10.7
		c-2.8-8.9-5.4-17.8-8.7-26.5c-3.5-9.3-7.4-18.5-13.7-26.4c-5.3-6.6-8-6.6-13.4-0.4c-1.3,1.5-2.7,3-3.6,4.7
		c-8.9,15.7-17.3,31.5-15.3,50.5c0.4,3.6,0.1,7.3,0.1,11C2060,668,2060,681.5,2060,697.5z M613.2,1283.1
		c-20.8,13.6-36.9,29.9-53.8,45.4c-2.8,2.6-2.3,5.1-1.5,8.1c4.1,14.7,8.6,29.3,15.3,43.2c2.6,5.4,5.4,10.7,9.8,15
		c4.3,4.2,6.2,4.6,10,0.4c10.7-11.9,18.4-26.3,19.7-41.7C614.7,1330.6,613.2,1307.6,613.2,1283.1z M2060,1284.4
		c0,19.5,0.7,36.8-0.2,54c-1.1,19.1,6.3,35.2,15.8,50.5c7.4,12.1,12.1,11.7,19.8-0.6c9.7-15.4,14.6-32.7,19.7-50
		c1.1-3.7,0-6.2-2.6-8.8C2096.8,1313.6,2079.3,1299.9,2060,1284.4z M611.9,698.2c2.1-3.3,1.3-5.9,1.3-8.4c0.1-16-0.8-32,0.3-47.9
		c1.2-18.4-6.2-33.8-15.1-48.6c-7.6-12.7-12.6-12.4-20.4,0.3c-10.1,16.3-15.1,34.6-20.4,52.8c-1,3.6,0.6,5.5,3,7.7
		c8.8,8.1,17.3,16.7,26.3,24.5C594.8,685.4,603.3,691.5,611.9,698.2z M1788.2,864c-12.5,3.2-12.6,3.2-13.9,13.8
		c-0.9,7.6-1.6,15.2-2.1,22.8c-1.8,26.2-2.9,52.5-3.2,78.8c0,4,0.8,6.3,5.4,6c4.6-0.3,9.3-0.2,14,0c5.1,0.1,6.9-2.1,6.7-7.3
		c-0.5-11.3-0.2-22.6-0.7-33.9C1793.2,917.5,1792.3,890.9,1788.2,864z M885.3,1118.4c12.8-3,12.5-3,13.8-13.9
		c3.5-29.5,4.6-59.1,5-88.8c0.3-23.5,5.2-18.7-19.8-19.4c-4.4-0.1-5.7,1.5-5.7,5.8C878.8,1040.8,880.3,1079.4,885.3,1118.4z
		 M885.7,863.5c-0.2,0.9-0.6,1.9-0.7,2.9c-4.3,33.7-6,67.5-6.1,101.4c0,5.5-2.5,12.6,1.3,16.2c3.8,3.6,10.8,1.1,16.3,1.2
		c7.9,0.1,8.1-0.1,7.9-8.4c-0.6-33.2-1.5-66.4-5.3-99.4C897.9,865.6,898,865.6,885.7,863.5z M1788.4,1117.5
		c4.4-34.4,5.9-68.6,6.5-102.9c0.1-5.6,2.4-12.7-0.9-16.5c-3.9-4.3-11.3-1.4-17.2-1.6c-7.6-0.2-7.7,0.1-7.7,7.6
		c0,24.7,1.3,49.3,2.8,73.9c0.6,10.3,2.2,20.5,2.9,30.8c0.3,3.6,1.7,5.5,4.9,6.5C1782.2,1116,1784.4,1117.7,1788.4,1117.5z
		 M1481.1,1078.1c0-2.7,0.1-4.4,0-6c-0.3-7.8-0.3-8.1-8.2-8.7c-22.9-1.7-45.8-3.3-68.7-4.7c-19.9-1.2-39.9-0.9-59.9-1
		c-4.6,0-5.5,2-5.4,6c0.1,3.7,0.3,6.7,5.2,6.2c1.3-0.1,2.7,0,4,0c34.3-0.3,68.4,1.9,102.5,5.6
		C1460.6,1076.6,1470.4,1078.5,1481.1,1078.1z M1480,903c-15.3,1.6-30.8,3.6-46.3,4.8c-29.5,2.4-59.1,4.7-88.8,3.9
		c-5.1-0.1-6.1,2-6,6.5c0.1,4.1,1.1,6.3,5.6,5.8c1.3-0.2,2.7,0,4,0c42.3,0.3,84.5-2.6,126.7-5.9c4.2-0.3,6.2-1.6,5.8-5.9
		C1480.7,909.3,1482,906.3,1480,903z M1192.2,1078.2c3.1-0.2,5.4-0.3,7.6-0.5c37-4.6,74-7.6,111.3-7.8c6,0,12-0.1,18,0
		c3.7,0.1,5.3-1.1,5.4-5.1c0.1-6.5,0-6.9-7.3-7c-40.6-0.8-81.1,1.7-121.6,4.6C1193.1,1063.3,1193.2,1063.6,1192.2,1078.2z
		 M1192.6,903.2c0.2,14.4,0.2,14.4,12.8,16c3,0.4,6,0.6,8.9,0.8c19.3,1.1,38.5,2,57.8,3.2c18.6,1.2,37.2,0.8,55.9,0.8
		c6.4,0,6.3-0.5,6.6-6.8c0.2-5.8-3.3-5.5-7.1-5.4c-28.3,0.8-56.5-1.5-84.7-3.6C1226.3,907,1209.8,905.4,1192.6,903.2z M653.6,694.6
		c2,12.3,3.8,22.4,5.1,32.6c0.5,3.7,1.7,6.1,4.8,8c14.2,8.8,27.5,18.8,42.2,26.6c2.7,1.4,6.2,6.3,8.9,2.4c2.7-3.7-2.6-6.2-5-8.5
		c-19-17.3-36.7-35.8-51.8-56.7C657,698.1,656,697.3,653.6,694.6z M654,1284.6c0.8,0,1.3,0.1,1.5,0c1.4-1.4,2.9-2.7,4-4.3
		c14.6-20.8,32.8-38.3,51.2-55.5c1.2-1.1,2.6-2.1,3.6-3.4c1.4-1.7,1.5-3.6-0.2-5.7c-2.9,0.3-5.3,2.1-7.8,3.6
		c-10.2,6.3-19.8,13.5-30.5,18.8c-12.9,6.4-19.3,15.7-19.2,30.2C656.6,1273.7,654.9,1279.1,654,1284.6z M2019.1,698.8
		c-0.5-0.3-1-0.6-1.5-0.9c-1,1.2-2,2.4-3,3.6c-6.8,9-13,18.4-21.4,26.1c-11,10.1-20.5,21.7-32.4,30.8c-1.9,1.5-3.6,3.2-2.1,5.9
		c2,3.5,4.1,0.5,5.7-0.4c15.4-9.7,30.8-19.6,46.1-29.5c2.3-1.5,4-3.1,4.4-6.2C2016.2,718.5,2017.7,708.6,2019.1,698.8z
		 M2017.1,1283.9c0.7-0.2,1.4-0.5,2.1-0.7c-1.5-10.1-3-20.2-4.4-30.4c-0.4-2.6-1.9-4.1-3.9-5.4c-15.6-10-31.3-20.1-46.9-30
		c-1.5-1-3.3-2.8-5-0.5c-1.7,2.4-0.3,4.2,1.7,5.9c4,3.4,8.1,6.9,11.8,10.6C1988.4,1249.3,2005.3,1264.3,2017.1,1283.9z M1044.6,1034
		c0.2,0,0.3,0,0.5,0c0-11-0.1-21.9,0.1-32.9c0.1-4.2-2-4.8-5.5-4.9c-4.5-0.1-4.6,2.6-4.6,5.9c0.1,22.3,1.2,44.5,2.4,66.8
		c0.1,1,0.2,2,0.4,3c0.2,1.2,1.2,1.8,2.1,1.7c0.8-0.1,1.9-1,2.2-1.7c0.5-1.5,0.7-3.2,0.8-4.9C1043.5,1055.9,1044,1045,1044.6,1034z
		 M1636.4,1033.8c0.7,0,1.4,0,2.1,0c0-10.6,0-21.2,0-31.8c0-2.7,0.2-5.3-3.6-5.8c-4.7-0.6-6,0.4-6,6.1c-0.1,21.9,0.2,43.7,2.1,65.6
		c0.1,1.3,0.1,2.7,0.6,3.9c0.3,0.7,1.5,1.6,2.2,1.5c0.7,0,1.7-1.1,1.9-1.8c0.5-1.9,0.7-3.9,0.7-5.9
		C1636.4,1055,1636.4,1044.4,1636.4,1033.8z M1638.5,948.1c-0.2,0-0.5,0-0.7,0c-0.5-11.6-1-23.3-1.6-34.9c-0.1-1.9,0.2-4.8-2.3-4.9
		c-3.3-0.1-2.8,3-3,5.2c-0.3,3-0.4,6-0.7,9c-1.5,19-1.4,37.9-1.4,56.9c0,5.3,2,6.8,6.4,5.8c3.8-0.8,3.3-3.6,3.3-6.2
		C1638.5,968.8,1638.5,958.4,1638.5,948.1z M1045.1,948c-0.1,0-0.3,0-0.4,0c-0.6-11.9-1.2-23.9-1.9-35.8c-0.1-1.9-0.4-4.3-3.2-3.9
		c-2.2,0.3-1.9,2.4-2,4c-1.3,22.5-2.3,45.1-2.5,67.7c0,3.7,1.2,5.4,5.1,5.4c4.1,0.1,5-1.9,5-5.5C1045,969.3,1045.1,958.7,1045.1,948
		z M741.9,740.1c-4.9,5.5-6.3,11-8.3,16.2c-0.8,2-0.8,4,1.2,5.3c6.2,4.1,11.6,9.4,19.7,13C751.6,762.1,748.8,750.9,741.9,740.1z
		 M1931.7,1241.3c11.7-16.6,11.5-18.2-3-28.3c-2.7-1.9-4.9-4.5-9.1-4.9C1921.9,1219.6,1924.7,1230.7,1931.7,1241.3z M1931.6,740
		c-6.6,10.9-9.8,22-12.1,33.9c4-0.9,6.1-3.1,8.5-4.8C1943.5,758.3,1943.6,757.2,1931.6,740z M742.1,1241.3
		c6.6-11.1,9.8-21.9,12.2-34.3c-8,3.6-13.2,8.8-19.2,12.6c-2,1.3-2.3,3.1-1.6,5.1C735.6,1230.2,736.7,1236.2,742.1,1241.3z
		 M597.6,1464.4c16.9-6.5,17.3-8.9,14-24.4C605.8,1447.2,601.7,1455,597.6,1464.4z M2061.5,1442.5c-5.1,14.3,5.6,17.3,12.5,22.8
		C2072.1,1457,2066.2,1451,2061.5,1442.5z M1781.6,836.9c-1,5.2-3.6,8.5-1.8,12.6C1785.7,846.2,1785.7,846.2,1781.6,836.9z
		 M895.4,849.3c-1.5-4.5-1.6-7.9-3.8-11.1C887.9,846.3,887.9,846.3,895.4,849.3z M630.1,1284.6c-0.4-5.3,4.1-10.2,1.8-17
		C627.4,1273.6,629.9,1279.2,630.1,1284.6z M629.9,697.1c0.2,5.4-3,11.4,2.4,16.6C633.8,707.4,630.4,702.5,629.9,697.1z
		 M2044.5,1284.5c-1-5.2,1.5-10.3-2.8-15C2040.3,1275.4,2042.4,1279.6,2044.5,1284.5z M2041.9,712.1c4.1-4.8,1.6-10,2.2-14.6
		C2043,702.1,2039.8,706.2,2041.9,712.1z M892.2,1143.9c0.4-4.2,3.5-7.3,1.6-11.5C887.6,1136,887.6,1136,892.2,1143.9z
		 M1779.6,1132.2c-1,2.9-0.4,4.8,0.4,6.5c0.7,1.5,0.4,3.6,2.3,4.6C1785.7,1135.3,1785.7,1135.3,1779.6,1132.2z M729.5,774
		c1.5,1.6,2.6,4,5.8,3.2C733.9,774.7,732.2,773.5,729.5,774z M737.9,778.4c-0.2,0.2-0.5,0.4-0.7,0.6c0.2,0.2,0.4,0.6,0.6,0.6
		c0.2,0,0.5-0.3,0.7-0.5C738.4,778.8,738.1,778.6,737.9,778.4z"/>
	<path class="st1" d="M534.9,1353.5c4.5,11.6,7.4,22.2,12.2,32c4.7,9.6,9.8,18.8,17.1,26.8c10.6,11.6,28.8,15.5,42.7,2.9
		c1.4-1.3,3.1-2.4,5.5-4.2c1.4,7.2,1.7,13.2-2.5,19.1c-8.4,11.7-14.8,24.4-20.8,37.4c-1.7,3.7-3.7,6.7-7.3,9.1
		c-52.7,33.7-105.3,67.6-158,101.4c-1.1,0.7-2.1,1.7-4.1,1.1c0-195.1,0-390.4,0-585.6c2.1-1.2,4.1-0.9,6-0.8
		c21.6,0.5,43.3,1.1,64.9,1.3c5.3,0,6.7,1.8,6.7,6.9c0.5,40,1.4,79.9,3.9,119.8c2.4,38.2,5.6,76.4,10.6,114.3
		c4.6,34.7,10.1,69.1,19.2,103c1.1,4,0.6,7.1-2.3,10c-0.9,0.9-1.7,2.1-2.6,3.1c-22.1,25.1-40.6,52.7-57.5,81.5
		c-11.6,19.7-19.9,41-28.9,61.9c14.9-23.9,25.7-50.1,41.8-73.5C497.6,1397.6,514.9,1375.3,534.9,1353.5z"/>
	<path class="st1" d="M534.6,627.2c-40-41.2-69.6-89-94.2-140.1c0.7,6.2,4,11.2,6.2,16.6c12.7,31.7,30.5,60.6,49.6,88.7
		c9.3,13.7,20.4,26.3,31,39.1c3.8,4.5,5,8.7,3.4,14.4c-9.6,35.4-15,71.6-19.6,107.9c-9.4,74.5-12.5,149.3-13.7,224.3c0,1-0.1,2,0,3
		c0.6,4.7-1.2,6.5-6.1,6.4c-8.3-0.2-16.7,0.2-25,0.4c-13.7,0.3-27.3,0.4-41,1c-4.8,0.2-6.8-1.2-6.2-6.1c0.3-2,0-4,0-6
		c0-187.9,0-375.8,0-563.7c0-3.5,0-7.1,0-10.7c4.2-0.1,6.3,2.3,8.7,3.9c50.4,32.4,100.8,64.9,151.3,97.1c5,3.2,8.4,7.1,10.8,12.4
		c5.1,11.2,10.4,22.4,17.8,32.3c4.9,6.6,6.7,13.5,5.1,21.9c-3.6-0.1-5.6-3.1-7.9-5c-12-9.8-28.1-7.7-38.9,2.8
		c-12.6,12.2-19,27.9-25.2,43.7C538.8,616.5,538.2,622.2,534.6,627.2z"/>
	<path class="st1" d="M2060.9,1411.1c7.4,4.3,12.3,10.3,20.6,11.4c9.8,1.4,17.7-1.4,24.8-7.5c8.5-7.3,13.9-16.9,18.8-26.8
		c5.1-10.4,8.6-21.5,12.7-32.5c24.7,24.7,73.3,78.9,107.2,169.7c-1.1-8.8-3.5-17.2-6.8-25.4c-13.2-33.9-29.3-66.4-49.3-96.8
		c-12.8-19.5-27.4-37.7-42.4-55.5c-3.4-4-4.8-7.1-3.5-12.3c12.8-48.8,19.1-98.6,24-148.7c5.9-59.7,8.4-119.6,8.9-179.7
		c0-1.3,0-2.7,0.1-4c0.2-7,0.2-7.1,7-7.4c20-0.7,40-1.3,60-1.9c2.3-0.1,4.7,0,7-0.1c3.5-0.2,4.8,1.4,4.6,4.8c-0.1,2,0,4,0,6
		c0,188.3,0,376.6,0,565c0,3.2,0,6.4,0,9.8c-4.5-0.2-6.9-2.8-9.5-4.5c-47.7-30.6-95.2-61.4-143-91.7c-9-5.7-16-11.6-19.9-22.4
		c-3.7-10.1-11.2-18.9-17.1-28.2C2060.8,1426.2,2058.6,1419.6,2060.9,1411.1z"/>
	<path class="st1" d="M2244.8,454.3c-23,66.2-59.6,121.8-106.6,172.4c-4.5-11.6-7.7-22.6-12.8-32.9c-4-8.1-8.4-15.8-14.4-22.7
		c-12.6-14.4-29.9-17.7-45.6-3.8c-1.1,1-2,2.7-4.6,2.6c-1.4-5.5-1.1-10.5,2-15.7c8.8-14.9,18.9-29,25.8-45c1-2.3,2.7-3.7,4.7-4.9
		c52.7-33.9,105.3-67.7,158-101.5c0.5-0.3,1.3-0.2,2.1-0.4c2.3,2.1,1.2,4.9,1.2,7.3c0.1,189.6,0.1,379.3,0.1,568.9
		c0,1.7-0.1,3.3,0,5c0.2,3.6-1.7,4.6-4.9,4.5c-5-0.2-10-0.3-15-0.5c-17-0.5-34-1-51-1.4c-7.4-0.2-7.5-0.2-7.6-7.8
		c-0.5-35.3-1.1-70.6-3.1-105.9c-2.6-45.9-6.4-91.7-12.8-137.3c-4.2-30.3-9.4-60.5-17.3-90.2c-1.1-4-0.2-6.6,2.5-9.8
		c27.4-31.6,51.5-65.6,70.4-102.8c11.3-22.2,21.7-44.9,28.2-69.2C2244.6,460.9,2245.4,458.8,2244.8,454.3z"/>
	<path class="st1" d="M553.7,662.8c3.8,0.2,5.2,2.8,6.9,4.6c14.5,15.2,30.3,29,46.9,41.9c4.1,3.2,5.8,6.4,5.8,11.7
		c-0.2,85.6-0.1,171.2-0.1,256.8c0,7.5-0.1,7.7-7.6,7.8c-25,0.4-50,0.6-74.9,1.1c-4.3,0.1-5.9-1.2-5.7-5.6c0.4-13,0.2-26,0.5-39
		c1.5-60.3,4.7-120.5,11.8-180.4c3.7-31.7,8.3-63.3,15.4-94.5C553,665.6,553.4,664.1,553.7,662.8z"/>
	<path class="st1" d="M553.6,1319.7c-22.4-107.4-27.4-215.3-28.7-323.3c3.3-2.5,6.4-1.5,9.3-1.5c23.3,0.3,46.7,0.7,70,1.1
		c9.5,0.1,9.2-1.2,9.2,9.2c0,72.3,0,144.7,0,217c0,13.3-0.1,26.7,0.1,40c0,3.6-0.7,6.2-3.8,8.6c-18.7,14.5-36.3,30.3-52.7,47.4
		C556.3,1318.5,555.6,1318.7,553.6,1319.7z"/>
	<path class="st1" d="M2119.8,1319.2c-6.7-6.5-12.1-12.3-18-17.5c-11.8-10.2-23.8-20.2-36-30.1c-4.2-3.4-5.9-7.1-5.9-12.7
		c0.2-84.6,0.1-169.1,0.1-253.7c0-8.4,0.1-8.5,8-8.5c24.3-0.2,48.6-0.4,72.9-0.5c7.5,0,7.7,0,7.6,7.7c-0.3,45.6-1.9,91.2-5.1,136.7
		c-2.7,39.9-6.7,79.6-12.5,119.1C2128.1,1279,2124.6,1298.3,2119.8,1319.2z"/>
	<path class="st1" d="M2120.4,664.4c12.3,57.5,18.7,115.7,22.8,174.2c3.1,44.9,4.7,89.8,5.2,134.8c0,2.3-0.1,4.7,0.1,7
		c0.3,4-1.7,5.2-5.4,5.1c-6.7-0.2-13.3-0.3-20-0.3c-18.3-0.1-36.7-0.2-55-0.4c-8-0.1-8.2-0.1-8.2-8.2c0-52.3,0-104.6,0-157
		c0-32,0.2-64-0.2-96c-0.1-6.3,2-10.3,6.8-14.3c17.1-14.3,35.1-27.7,50.2-44.2C2117.5,664.3,2118.3,663.8,2120.4,664.4z"/>
	<path class="st1" d="M878.7,1138.5c2,4.9,3.2,9.1,5.3,12.8c4,7.2,10.5,7.1,14.6,0c3-5.3,4.3-11.2,5.2-17.1c0.8-4.7,3.2-7.1,7.8-8.9
		c37.6-14.8,76.3-25.6,115.5-34.7c5-1.1,6.6,0.4,7.3,4.9c0.6,3.5,0.7,8.4,5.3,8.5c5.3,0.1,5.5-5.2,5.8-9c0.5-7.1,3.9-10,10.9-11.2
		c40-7,79.8-14.9,120.4-18c2.4-0.2,5.9-2.1,6.9,1.5c1,3.7,1.8,7.8,0.4,11.7c-0.7,1.8-2.9,1.2-4.4,1.5c-9.5,1.6-19.1,2.8-28.6,4.6
		c-39.6,7.4-78.6,17-117,29.2c-59.9,19-116.5,45.2-170.8,76.4c-41.6,24-80.2,52.3-117.2,83.1c-39.4,32.8-74.3,69.6-105.4,110.2
		c-3,3.9-6.2,7.7-9.4,11.6c-0.1,0.2-0.6,0.2-2.1,0.5c0.2-7-1.1-13.6,1.5-20.3c7.6-19.2,12.9-39.2,16.7-59.5
		c1.8-9.6,6.2-17.5,12-24.8c17.2-21.7,36.5-41.5,58.8-58.9c3.4,2.2,3.5,6.6,5.4,9.8c4,7,7.8,14.4,17.4,14.4
		c9.6,0,13.8-7.2,17.3-14.4c6.5-13.3,9.4-27.7,12.2-42c0.8-3.9,2.2-6.5,5.7-8.6C808.9,1171.4,842.7,1153.5,878.7,1138.5z"/>
	<path class="st1" d="M1032.8,891.9c-42-9-82.2-20.4-121.3-35.7c-4.8-1.9-6.9-4.4-7.7-9c-0.9-5.6-2.3-11.1-4.8-16.2
		c-1.5-3.2-3.7-5.9-7.3-6.1c-4.1-0.2-6.8,2.5-8.3,6.1c-1.6,3.6-2.8,7.4-4.7,12.2c-11.4-5.2-22.6-10-33.5-15.2
		c-23.1-11.1-45.4-23.7-67.3-37.1c-4.3-2.6-6.6-5.5-7.5-10.7c-2.1-11.4-4.6-22.8-8.9-33.7c-2.1-5.3-4.2-10.5-7.8-15
		c-7.6-9.4-17.5-9.4-25.3,0.1c-4.2,5.2-6,11.7-9.8,18.2c-11.1-9.9-22.3-18.8-32.2-28.9c-10.2-10.4-19.5-21.8-28.7-33.3
		c-5.6-7-8.9-15.3-10.6-24.4c-3.7-19.3-8.6-38.3-16-56.5c-2.9-7.1-1.4-14.1-0.5-21.8c3.9,4.8,7.9,9.4,11.6,14.3
		c23.7,32,51,60.7,80.1,87.7c19,17.6,39.4,33.9,59.9,49.7c45,34.7,93.8,63.3,144.7,87.9c39.2,18.9,79.8,34.7,121.6,47.1
		c41.2,12.2,82.8,22.3,125.4,28.2c1,0.1,2,0.2,3,0.4c7.3,1.2,10.5,7.7,7,14.2c-1.3,2.3-3.4,1.7-5.3,1.6c-8-0.7-15.9-1.5-23.8-2.4
		c-32.8-3.7-65.1-10.2-97.5-15.7c-7.1-1.2-11.5-3.9-11.7-11.6c0-1.3-0.4-2.6-0.8-3.9c-0.8-2.6-1.9-5.3-5.3-4.9
		c-2.7,0.3-3.7,2.6-4.4,4.9C1034.4,885.3,1033.7,888.2,1032.8,891.9z"/>
	<path class="st1" d="M1953.8,1233.7c3.8,1,5.8,3.4,8,5.3c21,19.1,40.7,39.4,57.6,62.2c3,4.1,4.9,8.4,6,13.5
		c4.5,20.5,9.3,40.9,17.1,60.4c1.3,3.1,2.4,6.3,1.8,9.7c-0.6,3.6,2.4,8.9-2.1,10.4c-2.5,0.8-5.4-3.9-7.3-6.7
		c-35.7-51.5-81-93.6-129.4-132.6c-40.8-32.9-84.7-61.2-131-85.6c-39.5-20.8-80.6-37.9-123-52c-45.9-15.2-92.6-26.8-140.3-34.3
		c-6.2-1-12.4-2.7-18.7-3.1c-6.5-0.4-5.5-4.5-5.2-8.4c0.4-5.4,2.1-7.1,7.5-6.6c8.3,0.7,16.5,1.9,24.8,2.7
		c33.2,3.4,65.8,10.1,98.6,15.7c6.3,1.1,9.2,3.4,9.6,10c0.2,3.6,0.3,9.3,5.3,9.6c6,0.4,5.5-5.6,6.3-9.5c0.7-3.9,2.4-5,6.2-4
		c39.4,9.7,78.9,19.2,116.7,34.3c4.5,1.8,6.8,4.2,7.5,9.1c0.9,5.9,2.2,11.8,5.1,17.2c1.7,3.1,3.8,5.6,7.6,5.6c3.8,0,6-2.5,7.6-5.6
		c0.9-1.8,1.7-3.6,2.3-5.5c2.8-7.7,2.9-7.9,9.9-4.7c32.6,15.3,64.6,31.4,95,50.8c3.4,2.2,5.1,4.7,5.8,8.6
		c2.1,12.1,4.9,24.1,9.4,35.7c1.9,5,4.1,9.8,7.5,14c7.5,9.4,17.7,9.4,25.3,0C1948.9,1245.3,1950.9,1239.5,1953.8,1233.7z"/>
	<path class="st1" d="M2043.6,585.1c0.9,7.5,1.7,14.1-0.8,20.4c-8,20.2-13.1,41.2-17.6,62.4c-0.9,4.4-2.6,8.3-5.2,11.7
		c-17.8,23.8-38.4,45.2-60.6,64.9c-1.5,1.3-3.2,2.3-5.1,3.8c-2.9-5.3-5.1-10.4-8.2-14.9c-8-11.8-19.3-11.8-27.5-0.1
		c-7.4,10.6-11.4,23-12.8,35.4c-1.7,14.6-9.4,22.2-21.3,29.3c-25.5,15.2-52.1,28.1-78.7,41.2c-2.4,1.2-5,2-7.3,3.1
		c-2.7,1.3-4.3,0.7-5.2-2.2c-1-3.2-1.9-6.4-3.4-9.3c-4.2-7.7-10.8-7.7-15.1-0.1c-2.5,4.4-3.9,9.3-4.5,14.2c-0.8,7-4.2,10.7-11,13.3
		c-27.5,10.2-55.4,18.9-83.9,25.7c-10,2.4-20.1,4.8-30,7.5c-3.8,1-5.4,0-6.1-3.9c-0.7-4-0.2-9.9-6.2-9.6c-5.1,0.2-5.3,6-5.4,9.5
		c-0.1,7.5-4.3,9-10.5,10.2c-39.6,7.4-79.4,13.9-119.5,18.1c-2.8,0.3-6.7,2.3-8.1-1.3c-1.4-3.6-1.7-7.9-0.3-11.7
		c0.9-2.4,3.9-2,6.2-2.4c13.8-2.4,27.6-4.4,41.3-7c42.1-8.2,83.5-19.3,124.2-33.1c57.6-19.6,112.2-45.7,163.9-77.3
		c38.1-23.2,73.8-50.1,107.6-79.4c37.9-32.8,72.6-68.6,102.5-109C2037.5,591.3,2039.4,587.8,2043.6,585.1z"/>
	<path class="st1" d="M777.2,1163.8c-0.9-7.9,1.2-15.4,2-23c4.4-45.1,6.3-90.3,6.6-135.6c0.1-8.6,0.2-8.7,8.8-8.7
		c22-0.1,44-0.1,65.9,0c8.3,0,8.4,0.1,8.5,7.9c0.2,37.7,2,75.2,6.5,112.6c0.5,3.8,0.3,6-3.9,7.5c-31.7,11.3-62.2,25.3-92.6,39.6
		C778.8,1164.3,778.4,1164.1,777.2,1163.8z"/>
	<path class="st1" d="M776.8,817.8c3.1-0.6,4.7,0.6,6.5,1.4c28.2,13.5,56.6,26.5,86.2,36.8c5.4,1.9,6.7,4.3,6,10.1
		c-4.5,36.7-6.3,73.6-6.4,110.6c0,8.1,0.7,8.3-8.1,8.3c-22.6-0.1-45.3,0-67.9-0.1c-7,0-7.1-0.2-7.2-7.3c-0.4-28.6-0.9-57.3-2.7-85.9
		c-1.3-21.3-2.9-42.5-5.5-63.7C777.2,824.9,777.1,821.6,776.8,817.8z"/>
	<path class="st1" d="M1896.4,1163.9c-3.3,0.5-5.7-1.5-8.4-2.8c-27.2-13.3-54.8-25.7-83.3-36.1c-7.4-2.7-7.2-2.9-6.3-10.6
		c4.4-35.8,5.3-71.8,6.4-107.7c0.1-1.7,0.1-3.3,0-5c-0.3-3.8,1.3-5.4,5.2-5.3c6.3,0.2,12.7,0.1,19,0.1c16.7,0,33.3,0,50,0.1
		c8.4,0,8.4,0.1,8.6,8.8c0.8,30.3,1.2,60.6,3.3,90.9c1.4,19.9,2.9,39.9,5.3,59.7C1896.5,1158.6,1897.4,1161.2,1896.4,1163.9z"/>
	<path class="st1" d="M1896.8,817.7c-1.3,13.9-2.7,27.7-3.9,41.6c-3.5,38.5-4.5,77-5.2,115.6c0,1.7-0.2,3.3-0.1,5
		c0.4,4-1.5,5.5-5.2,5.1c-1-0.1-2,0-3,0c-22.6,0-45.3-0.1-67.9,0.2c-5,0-6.8-1.2-6.8-6.6c-0.4-28.3-1.2-56.5-3.6-84.7
		c-0.8-8.9-1.6-17.9-2.7-26.8c-0.9-7.6-1.1-7.8,6.5-10.6c23-8.7,45.8-17.8,67.9-28.7c6-2.9,12-5.7,18-8.6
		C1892.5,818.3,1894.3,817.4,1896.8,817.7z"/>
	<path class="st1" d="M908.3,1109.6c-1-4.4,0.4-8.6,0.8-12.8c2.5-30.9,4-61.8,4-92.9c0-7.4,0.2-7.5,7.9-7.5
		c33.3-0.1,66.7-0.2,100-0.2c7.8,0,8.1,0.1,8,7.4c-0.3,22,1,44,2.3,65.9c0.3,4.5-1,6.5-5.5,7.4c-38.7,8.5-76.4,20.9-114.2,32.5
		C910.7,1109.8,909.7,1109.6,908.3,1109.6z"/>
	<path class="st1" d="M1765.3,1110.4c-9.6-3-18.1-5.6-26.6-8.4c-29.1-9.6-58.7-17.4-88.5-24.5c-8.9-2.1-8.1-1.4-7.6-10.4
		c1.2-21,1.6-42,2.3-62.9c0.2-7.7,0.2-7.9,7.5-7.9c33.3,0,66.7,0.1,100,0.2c7.8,0,8.2,0.3,8.2,7.7c0.2,34,1.7,68,4.8,101.8
		C1765.4,1106.9,1765.3,1107.9,1765.3,1110.4z"/>
	<path class="st1" d="M908.8,872.2c2.8-1.1,5,0.8,7.5,1.5c36.1,10.3,71.6,22.9,108.5,30.5c5.5,1.1,6.7,3.6,6.4,8.8
		c-1.3,21.9-2.6,43.9-2.1,65.9c0.1,4.7-1.2,6.5-6.1,6.4c-34.7-0.2-69.3-0.2-104-0.1c-4.1,0-6.1-1-6-5.6c0.4-35.6-2-71.2-4.8-106.7
		C908.2,872.8,908.6,872.5,908.8,872.2z"/>
	<path class="st1" d="M1765.6,872.4c-0.9,10.7-1.8,20.9-2.5,31.2c-1.7,24.6-2.4,49.2-2.6,73.8c-0.1,7.7-0.2,7.8-7.7,7.8
		c-33.6,0.1-67.2,0.1-100.8,0.1c-6.9,0-6.9-0.2-7.1-7.1c-0.8-21.9-1.3-43.9-2.6-65.8c-0.3-5.4,1.8-7,6.2-8
		c14.5-3.5,29-7.1,43.5-10.8c22.5-5.7,44.5-13.5,66.7-20.3C1760.5,872.7,1762.3,871.8,1765.6,872.4z"/>
	<path class="st1" d="M725.8,1192.5c-5.9-34.3-8.8-67.4-11-100.6c-1.8-27.6-2.2-55.2-3-82.8c-0.1-2.3,0.1-4.7-0.1-7
		c-0.4-4.4,1.6-5.8,5.9-5.7c9,0.2,18,0,27,0c6.7,0,13.3-0.1,20,0c7.2,0.1,7.4,0.2,7.3,7.1c-0.5,23.6-1,47.2-2,70.8
		c-1.2,27.2-3.3,54.4-6.7,81.5c-0.2,1.3-0.3,2.6-0.4,4c-0.4,9.2-3.4,16-13,19.7C741.7,1182.7,734.5,1187.7,725.8,1192.5z"/>
	<path class="st1" d="M1946.2,1191.7c-10.1-5.6-20.4-11.5-30.8-17.2c-3.3-1.8-3.1-5-3.5-7.8c-1.4-10.2-2.4-20.5-3.5-30.7
		c-4.7-43.8-6-87.7-6.7-131.6c-0.1-7.7,0.1-7.8,7.7-7.8c15.3-0.1,30.6,0.1,46-0.1c4.6-0.1,6.5,1.1,6.4,6.1
		c-0.5,34-1.2,67.9-3.7,101.8c-2,26.9-4.5,53.7-8.9,80.4C1948.7,1187,1949.1,1189.5,1946.2,1191.7z"/>
	<path class="st1" d="M1947.7,789.1c5.8,32.7,8.6,63.8,10.8,95c2.1,30.6,2.8,61.2,3.1,91.9c0.1,9.6,0.3,8.9-8.3,8.9
		c-15,0-30-0.1-45,0.2c-5.3,0.1-6.9-1.8-6.7-7c0.9-25.3,1.3-50.6,2.5-75.9c1.3-27.3,3.9-54.4,6.9-81.6c0.9-8.3,3.3-14.2,11.5-17.8
		C1930.8,799.2,1938.6,794.1,1947.7,789.1z"/>
	<path class="st1" d="M726,789.2c11.3,6.2,21.7,11.9,32.2,17.5c2.9,1.6,2.8,4.2,3.2,6.8c2.7,15.8,4.1,31.7,5.5,47.6
		c3.3,37.2,4.5,74.5,5,111.8c0,2.3,0,4.7,0.1,7c0.1,3.1-0.8,5-4.4,5c-17-0.1-34-0.1-51-0.1c-3.3,0-4.8-1.5-4.7-4.8
		c0.2-5.7,0-11.3,0.2-17c1-42.6,2.7-85.2,7.3-127.7C720.9,820.5,722.6,805.7,726,789.2z"/>
	<path class="st1" d="M1625.1,910.5c-0.6,9.4-1.4,18-1.7,26.5c-0.4,13-0.4,26-0.6,38.9c-0.1,9.3-0.2,9.4-9.2,9.4
		c-30.6,0.1-61.3,0.1-91.9,0.1c-8.3,0-16.7-0.1-25,0.1c-4.2,0.1-5.9-1.3-5.9-5.7c0-15-0.1-30-0.7-44.9c-0.2-4.8,2.5-5.5,6-6
		c10.9-1.3,21.8-3.6,32.7-3.7c23.9-0.2,46.7-6.5,70-10C1607.1,913.9,1615.2,912.2,1625.1,910.5z"/>
	<path class="st1" d="M1625.2,1071.1c-23.5-4.2-45.7-8.1-67.9-12.1c-7.9-1.4-15.8-2.4-23.8-2.5c-12.7-0.1-25.1-2.6-37.7-4
		c-4-0.4-5.8-1.6-5.6-6.1c0.5-14.6,0.6-29.3,0.6-43.9c0-4.5,1-6.5,6.1-6.5c39.9,0.2,79.9,0.2,119.8,0.1c5,0,6.1,2.1,6.1,6.6
		C1622.9,1025,1623,1047.3,1625.2,1071.1z"/>
	<path class="st1" d="M1049.3,1070.4c-1-5.9-0.1-11.8,0.3-17.7c0.9-16.3,1.4-32.6,1.4-48.9c0-7.3,0.2-7.5,6.8-7.5
		c39.3-0.1,78.5-0.1,117.8-0.1c7,0,7.1,0.2,7.2,7.2c0.2,14,0,27.9,0.5,41.9c0.2,5.2-1.5,6.6-6.6,7c-16.9,1.3-33.8,2.7-50.6,5.2
		c-23.3,3.4-46.7,6.8-69.7,12.3C1054.2,1070.3,1051.9,1071.4,1049.3,1070.4z"/>
	<path class="st1" d="M1049.8,910.2c22.1,5.7,44.8,8.7,67.4,12.5c16.4,2.8,33.1,3.3,49.6,5.2c16.4,1.9,16.4,1.5,16.3,17.4
		c-0.1,11-0.3,22-0.2,32.9c0.1,4.9-1,7.2-6.6,7.2c-39.9-0.2-79.9-0.2-119.8-0.1c-3.4,0-5.7-0.6-5.6-4.8c0.6-22.6-1.3-45.2-1.9-67.8
		C1049,912,1049.4,911.4,1049.8,910.2z"/>
	<path class="st1" d="M1260.5,985.4c-21.6,0-43.2,0-64.9,0c-8,0-8.2-0.1-8.1-8.4c0.2-13.6,0.6-27.3,0.8-40.9c0.1-4.2,1.4-5.6,6-5.1
		c41.7,4.1,83.5,6.2,125.5,6.2c2.3,0,4.7,0,7,0c7.5,0.2,7.5,0.2,7.6,7.9c0.1,10.3,0.1,20.6,0.1,30.9c0,9.3,0,9.4-9.1,9.4
		C1303.8,985.4,1282.2,985.4,1260.5,985.4z"/>
	<path class="st1" d="M1485,931.5c0.3,16.2,0.5,32.7,0.8,49.3c0.1,3.4-1.7,4.8-4.9,4.6c-2-0.1-4,0-6,0c-41.6,0-83.2,0-124.9,0
		c-2,0-4-0.1-6,0c-4,0.3-5.1-1.8-5-5.5c0.1-11.7,0-23.3,0.1-35c0.1-7.6,0.1-7.8,7.6-7.8c17.3,0.2,34.6-0.6,51.9-1.1
		c26.3-0.7,52.5-3.1,78.7-5.1C1479.6,930.9,1481.8,930,1485,931.5z"/>
	<path class="st1" d="M1485,1051.1c-35.4-3-69.9-5.3-104.5-6.4c-11.6-0.4-23.3-0.5-34.9-0.4c-4.4,0-6.7-0.8-6.5-6
		c0.4-12,0.3-24,0-36c-0.1-4.8,1.6-6.3,6.3-6.2c45,0.1,89.9,0.1,134.9,0c3.5,0,5.8,0.7,5.7,4.8
		C1485.5,1017.5,1485.3,1034.1,1485,1051.1z"/>
	<path class="st1" d="M1188.4,1050.6c-0.3-17.2-0.5-33.7-0.8-50.3c0-2.9,1.6-4.1,4.4-4.1c1.7,0,3.3,0,5,0c42.6,0,85.1,0,127.7,0
		c1.7,0,3.3,0.1,5,0c3.3-0.2,4.9,1.2,4.9,4.6c-0.1,13-0.1,25.9,0,38.9c0,3.6-1.7,4.7-4.9,4.5c-0.7,0-1.3,0-2,0
		C1281.6,1043.7,1235.9,1047.2,1188.4,1050.6z"/>
	<path class="st1" d="M2010.7,1230.1c-5.1-1.9-9-5.1-13.1-7.7c-9.9-6.1-19.6-12.6-29.8-18.3c-4.8-2.6-5.5-5.6-4.5-10.4
		c3.9-20,6.2-40.1,8.2-60.4c4-41.2,5.8-82.4,6.1-123.8c0-3,0.1-6,0-9c-0.1-3,1.1-3.8,4.1-4.1c16.5-1.5,16.7-1.4,16.8,14.7
		c0.4,66.4,3.9,132.5,10.7,198.6C2009.9,1216.3,2011.6,1222.7,2010.7,1230.1z"/>
	<path class="st1" d="M2011.2,752.5c-1.6,16.9-3.2,33.8-4.8,50.6c-3,30.8-4.6,61.7-6.1,92.6c-1.3,27.3-1.5,54.5-1.8,81.8
		c-0.1,7.1-0.2,7.3-7.1,7.3c-16.3,0-13.6,1.3-13.7-12.8c-0.5-54.3-3.2-108.4-10.6-162.2c-1.1-7.9-2.5-15.8-3.9-23.6
		c-0.7-3.6-0.1-6,3.5-8.2c13.4-8,26.6-16.4,39.8-24.7C2007.6,752.8,2008.5,751.7,2011.2,752.5z"/>
	<path class="st1" d="M662.1,1231.5c1.9-20.4,3.7-38.6,5.4-56.8c3-31.9,4.7-63.8,6-95.8c1-24.6,1.6-49.3,1.6-74
		c0-8.3,0.1-8.3,7.9-8.4c1.3,0,2.7,0,4,0c8.6,0.1,8.7,0.1,8.8,8.7c0.4,40,1.8,80,5.4,119.8c2,22.9,4.4,45.8,9,68.3
		c1.1,5.5,0.2,8.5-5.1,11c-12.7,6-23.9,14.5-35.5,22.2C667.7,1227.9,665.8,1229.1,662.1,1231.5z"/>
	<path class="st1" d="M662.9,752.1c2.6-0.9,3.9,1,5.4,2.1c12.4,8.4,24.6,17.1,38,23.9c3.3,1.7,5,3.6,4.2,7.7
		c-11.3,61.8-13.7,124.4-14.8,187c-0.2,13.5,2.2,12.1-12.3,12.1c-8.4,0-8.5-0.1-8.5-8.9c0.1-52.7-2.6-105.3-6.4-157.8
		c-1.5-20.6-4-41.1-6-61.7C662.5,755.1,661.9,753.4,662.9,752.1z"/>
	<path class="st1" d="M2044.3,728.6c0,3.4,0,6.3,0,9.2c0,78.9,0,157.9,0,236.8c0,1.7-0.1,3.3,0,5c0.4,3.9-1.3,5.4-5.2,5.3
		c-5.9-0.2-11.9,0-18.3,0c0-26.3,0.3-51.6,1.3-76.8c1.7-42.3,4.4-84.5,8.9-126.5c1.6-14.9,3.9-29.7,5.6-44.6
		C2037.2,732.4,2038.9,729.7,2044.3,728.6z"/>
	<path class="st1" d="M2044.3,1253c-5.6-1.2-7-4.1-7.7-8.6c-3.1-19.4-5.2-38.9-7-58.5c-5.6-59-8.7-118.2-8.7-177.6
		c0-13.6-1.4-11.7,11.5-11.8c13.3,0,11.9-1.5,11.9,11.5c0,78.6,0,157.2,0,235.8C2044.3,1246.6,2044.3,1249.3,2044.3,1253z"/>
	<path class="st1" d="M629.2,728.7c5.8,1.6,7.4,4.6,7.9,9c2.3,21.2,5.3,42.2,7.3,63.4c5.3,55.3,7.7,110.8,8.5,166.4
		c0,3.3,0.1,6.7,0,10c-0.1,7.5-0.1,7.5-7.7,7.7c-16,0.5-16,0.5-16-15.3c0-76.5,0-153.1,0-229.6C629.2,736.7,629.2,733,629.2,728.7z"
		/>
	<path class="st1" d="M629.2,1253.2c0-6,0-10.6,0-15.3c0-75.7,0-151.3,0-227c0-2,0-4,0-6c-0.1-9.2-0.3-8.7,8.7-8.6
		c15.1,0,15.2,0,15,15.6c-0.7,62.7-3.8,125.2-10.3,187.6c-1.5,14.9-3.9,29.7-5.5,44.6C636.6,1248.7,634.5,1251.1,629.2,1253.2z"/>
	<path class="st1" d="M2060,697.5c0-15.9,0-29.5,0-43c0-3.7,0.3-7.3-0.1-11c-2-19,6.4-34.8,15.3-50.5c1-1.7,2.3-3.2,3.6-4.7
		c5.4-6.2,8.1-6.2,13.4,0.4c6.3,7.8,10.3,17.1,13.7,26.4c3.2,8.7,5.9,17.6,8.7,26.5c1.3,4,1,7.1-2.4,10.7
		C2096.7,668.2,2079,681.6,2060,697.5z"/>
	<path class="st1" d="M613.2,1283.1c0,24.5,1.5,47.6-0.5,70.3c-1.4,15.4-9,29.8-19.7,41.7c-3.8,4.2-5.7,3.9-10-0.4
		c-4.3-4.3-7.2-9.6-9.8-15c-6.7-13.8-11.2-28.4-15.3-43.2c-0.8-3-1.3-5.6,1.5-8.1C576.3,1313,592.4,1296.7,613.2,1283.1z"/>
	<path class="st1" d="M2060,1284.4c19.3,15.5,36.8,29.3,52.5,45.2c2.6,2.6,3.7,5.1,2.6,8.8c-5.1,17.2-10,34.5-19.7,50
		c-7.7,12.2-12.4,12.7-19.8,0.6c-9.5-15.4-16.9-31.4-15.8-50.5C2060.7,1321.2,2060,1303.9,2060,1284.4z"/>
	<path class="st1" d="M611.9,698.2c-8.5-6.7-17.1-12.8-25-19.7c-9.1-7.8-17.5-16.4-26.3-24.5c-2.3-2.2-4-4.1-3-7.7
		c5.3-18.2,10.3-36.5,20.4-52.8c7.8-12.7,12.8-13,20.4-0.3c8.9,14.9,16.3,30.2,15.1,48.6c-1,15.9-0.2,31.9-0.3,47.9
		C613.2,692.2,614,694.9,611.9,698.2z"/>
	<path class="st1" d="M1788.2,864c4.1,27,4.9,53.5,6.1,80.1c0.5,11.3,0.2,22.6,0.7,33.9c0.2,5.2-1.6,7.4-6.7,7.3
		c-4.7-0.1-9.3-0.3-14,0c-4.6,0.3-5.5-2-5.4-6c0.2-26.3,1.3-52.5,3.2-78.8c0.5-7.6,1.2-15.2,2.1-22.8
		C1775.6,867.2,1775.7,867.2,1788.2,864z"/>
	<path class="st1" d="M885.3,1118.4c-5.1-39.1-6.6-77.6-6.6-116.3c0-4.2,1.3-5.9,5.7-5.8c25,0.7,20.1-4.1,19.8,19.4
		c-0.4,29.6-1.5,59.3-5,88.8C897.9,1115.4,898.1,1115.4,885.3,1118.4z"/>
	<path class="st1" d="M885.7,863.5c12.4,2.1,12.2,2.1,13.5,13.8c3.8,33,4.6,66.2,5.3,99.4c0.2,8.3,0,8.5-7.9,8.4
		c-5.6-0.1-12.6,2.4-16.3-1.2c-3.8-3.6-1.3-10.7-1.3-16.2c0.1-33.9,1.8-67.7,6.1-101.4C885.1,865.4,885.4,864.5,885.7,863.5z"/>
	<path class="st1" d="M1788.4,1117.5c-4,0.3-6.2-1.5-8.7-2.2c-3.2-0.9-4.6-2.9-4.9-6.5c-0.7-10.3-2.2-20.5-2.9-30.8
		c-1.5-24.6-2.8-49.2-2.8-73.9c0-7.5,0.1-7.8,7.7-7.6c5.9,0.2,13.3-2.7,17.2,1.6c3.4,3.7,1,10.9,0.9,16.5
		C1794.3,1048.8,1792.8,1083.1,1788.4,1117.5z"/>
	<path class="st1" d="M1481.1,1078.1c-10.7,0.3-20.5-1.5-30.3-2.6c-34.1-3.7-68.2-5.9-102.5-5.6c-1.3,0-2.7-0.1-4,0
		c-4.9,0.5-5.1-2.5-5.2-6.2c-0.1-4,0.7-6,5.4-6c20,0.1,39.9-0.2,59.9,1c22.9,1.4,45.8,3,68.7,4.7c7.9,0.6,7.8,0.9,8.2,8.7
		C1481.2,1073.7,1481.1,1075.4,1481.1,1078.1z"/>
	<path class="st1" d="M1480,903c2,3.3,0.7,6.3,1,9.2c0.4,4.3-1.6,5.6-5.8,5.9c-42.2,3.3-84.3,6.2-126.7,5.9c-1.3,0-2.7-0.1-4,0
		c-4.5,0.5-5.5-1.7-5.6-5.8c-0.1-4.5,0.9-6.6,6-6.5c29.7,0.7,59.2-1.5,88.8-3.9C1449.3,906.5,1464.7,904.6,1480,903z"/>
	<path class="st1" d="M1192.2,1078.2c1-14.7,0.9-15,13.5-15.8c40.5-2.9,80.9-5.4,121.6-4.6c7.3,0.1,7.4,0.5,7.3,7
		c-0.1,4-1.7,5.2-5.4,5.1c-6-0.2-12-0.1-18,0c-37.3,0.2-74.3,3.2-111.3,7.8C1197.6,1078,1195.3,1078,1192.2,1078.2z"/>
	<path class="st1" d="M1192.6,903.2c17.2,2.2,33.7,3.8,50.2,5c28.2,2.1,56.4,4.4,84.7,3.6c3.8-0.1,7.3-0.4,7.1,5.4
		c-0.3,6.3-0.2,6.8-6.6,6.8c-18.6,0-37.2,0.4-55.9-0.8c-19.2-1.2-38.5-2.1-57.8-3.2c-3-0.2-6-0.4-8.9-0.8
		C1192.8,917.6,1192.8,917.6,1192.6,903.2z"/>
	<path class="st1" d="M653.6,694.6c2.5,2.7,3.4,3.5,4.2,4.6c15.1,20.9,32.8,39.4,51.8,56.7c2.5,2.3,7.7,4.8,5,8.5
		c-2.7,3.9-6.2-1-8.9-2.4c-14.7-7.8-28.1-17.9-42.2-26.6c-3.1-1.9-4.3-4.4-4.8-8C657.4,717,655.5,706.9,653.6,694.6z"/>
	<path class="st1" d="M654,1284.6c0.9-5.5,2.7-11,2.6-16.4c-0.1-14.4,6.3-23.8,19.2-30.2c10.6-5.3,20.3-12.5,30.5-18.8
		c2.5-1.5,4.9-3.3,7.8-3.6c1.6,2.1,1.5,4,0.2,5.7c-1,1.3-2.4,2.3-3.6,3.4c-18.4,17.3-36.5,34.8-51.2,55.5c-1.1,1.6-2.6,2.9-4,4.3
		C655.3,1284.8,654.8,1284.6,654,1284.6z"/>
	<path class="st1" d="M2019.1,698.8c-1.4,9.8-3,19.6-4.2,29.5c-0.4,3-2.2,4.7-4.4,6.2c-15.3,9.9-30.7,19.7-46.1,29.5
		c-1.5,1-3.7,4-5.7,0.4c-1.5-2.6,0.2-4.4,2.1-5.9c11.9-9.2,21.5-20.7,32.4-30.8c8.4-7.7,14.5-17.2,21.4-26.1c0.9-1.2,2-2.4,3-3.6
		C2018.1,698.2,2018.6,698.5,2019.1,698.8z"/>
	<path class="st1" d="M2017.1,1283.9c-11.8-19.6-28.7-34.6-44.6-50.5c-3.7-3.7-7.8-7.2-11.8-10.6c-1.9-1.7-3.4-3.4-1.7-5.9
		c1.7-2.4,3.5-0.5,5,0.5c15.7,10,31.3,20,46.9,30c2,1.3,3.5,2.9,3.9,5.4c1.4,10.1,2.9,20.2,4.4,30.4
		C2018.5,1283.4,2017.8,1283.7,2017.1,1283.9z"/>
	<path class="st1" d="M1044.6,1034c-0.6,11-1.1,21.9-1.7,32.9c-0.1,1.6-0.3,3.3-0.8,4.9c-0.3,0.8-1.4,1.6-2.2,1.7
		c-0.9,0.1-1.9-0.5-2.1-1.7c-0.1-1-0.3-2-0.4-3c-1.2-22.2-2.3-44.5-2.4-66.8c0-3.2,0-6,4.6-5.9c3.5,0.1,5.6,0.7,5.5,4.9
		c-0.2,11-0.1,21.9-0.1,32.9C1044.9,1034,1044.8,1034,1044.6,1034z"/>
	<path class="st1" d="M1636.4,1033.8c0,10.6,0,21.2,0,31.8c0,2-0.3,4-0.7,5.9c-0.2,0.8-1.2,1.8-1.9,1.8c-0.8,0-1.9-0.8-2.2-1.5
		c-0.5-1.2-0.5-2.6-0.6-3.9c-1.9-21.8-2.2-43.7-2.1-65.6c0-5.7,1.3-6.7,6-6.1c3.9,0.5,3.6,3.1,3.6,5.8c0,10.6,0,21.2,0,31.8
		C1637.8,1033.8,1637.1,1033.8,1636.4,1033.8z"/>
	<path class="st1" d="M1638.5,948.1c0,10.3,0,20.6,0,31c0,2.6,0.5,5.4-3.3,6.2c-4.4,0.9-6.4-0.5-6.4-5.8c0-19,0-38,1.4-56.9
		c0.2-3,0.4-6,0.7-9c0.2-2.2-0.3-5.4,3-5.2c2.5,0.1,2.2,3,2.3,4.9c0.6,11.6,1.1,23.3,1.6,34.9C1638,948.1,1638.2,948.1,1638.5,948.1
		z"/>
	<path class="st1" d="M1045.1,948c0,10.6-0.1,21.2,0,31.9c0,3.6-0.9,5.5-5,5.5c-3.9-0.1-5.1-1.7-5.1-5.4c0.1-22.6,1.2-45.1,2.5-67.7
		c0.1-1.6-0.1-3.7,2-4c2.8-0.4,3.1,1.9,3.2,3.9c0.7,11.9,1.3,23.9,1.9,35.8C1044.8,948,1044.9,948,1045.1,948z"/>
	<path class="st1" d="M741.9,740.1c7,10.8,9.7,22,12.6,34.5c-8.1-3.6-13.5-8.9-19.7-13c-2-1.3-2-3.3-1.2-5.3
		C735.6,751.1,737,745.6,741.9,740.1z"/>
	<path class="st1" d="M1931.7,1241.3c-6.9-10.6-9.7-21.7-12.1-33.3c4.2,0.4,6.4,3.1,9.1,4.9
		C1943.2,1223.1,1943.4,1224.7,1931.7,1241.3z"/>
	<path class="st1" d="M1931.6,740c12,17.2,11.9,18.3-3.6,29.1c-2.4,1.7-4.5,3.9-8.5,4.8C1921.8,761.9,1925,750.9,1931.6,740z"/>
	<path class="st1" d="M742.1,1241.3c-5.3-5.2-6.5-11.1-8.6-16.5c-0.8-2-0.5-3.8,1.6-5.1c6-3.9,11.2-9.1,19.2-12.6
		C751.8,1219.5,748.7,1230.3,742.1,1241.3z"/>
	<path class="st1" d="M599.6,517.5c0.6,0.1,1.4,0.1,1.9,0.4c12.6,7.1,13,7.9,10.7,24.4c-5.9-7.9-11-15.2-13.4-24.1
		C599,518,599.3,517.7,599.6,517.5z"/>
	<path class="st1" d="M597.6,1464.4c4-9.4,8.1-17.2,14-24.4C614.9,1455.5,614.5,1457.9,597.6,1464.4z"/>
	<path class="st1" d="M2072.4,516.4c2.2,0.6,2.3,2,1.3,3.7c-3.8,6.1-7.7,12.1-11.9,18.6c-2.8-10.6-2.1-12.7,5.3-17.8
		c1.9-1.3,4.2-2,5.3-4.3L2072.4,516.4z"/>
	<path class="st1" d="M2061.5,1442.5c4.7,8.5,10.5,14.5,12.5,22.8C2067.2,1459.8,2056.4,1456.8,2061.5,1442.5z"/>
	<path class="st1" d="M1781.6,836.9c4.2,9.3,4.2,9.3-1.8,12.6C1777.9,845.4,1780.6,842.1,1781.6,836.9z"/>
	<path class="st1" d="M895.4,849.3c-7.5-2.9-7.5-2.9-3.8-11.1C893.8,841.3,893.9,844.7,895.4,849.3z"/>
	<path class="st1" d="M630.1,1284.6c-0.2-5.4-2.7-11,1.8-17C634.2,1274.4,629.7,1279.3,630.1,1284.6z"/>
	<path class="st1" d="M629.9,697.1c0.5,5.4,3.9,10.3,2.4,16.6C626.9,708.5,630.1,702.5,629.9,697.1z"/>
	<path class="st1" d="M2044.5,1284.5c-2.2-5-4.3-9.2-2.8-15C2046.1,1274.3,2043.5,1279.4,2044.5,1284.5z"/>
	<path class="st1" d="M2041.9,712.1c-2.2-6,1.1-10.1,2.2-14.6C2043.5,702.2,2046,707.4,2041.9,712.1z"/>
	<path class="st1" d="M892.2,1143.9c-4.6-7.9-4.6-7.9,1.6-11.5C895.7,1136.5,892.6,1139.7,892.2,1143.9z"/>
	<path class="st1" d="M1779.6,1132.2c6.1,3.1,6.1,3.1,2.7,11.1c-1.9-1-1.7-3.1-2.3-4.6C1779.2,1137,1778.6,1135.1,1779.6,1132.2z"/>
	<path class="st1" d="M1934.8,1202.5c4.1-0.6,6.5,2.5,11.4,4.9c-6.3,0.5-8.2-3.5-11.3-5.1L1934.8,1202.5z"/>
	<path class="st1" d="M1935.8,777c3.1,0.9,4.5-3.5,7.8-2.9c-1.8,4-4.7,3.9-7.9,2.8L1935.8,777z"/>
	<path class="st1" d="M729.5,774c2.7-0.5,4.4,0.6,5.8,3.2C732.1,778,731,775.7,729.5,774z"/>
	<path class="st1" d="M734,1202.5c2.3,4.6-1.2,4.8-4.2,5.9c-0.6-3.7,3.7-3.3,4.2-5.7C734,1202.7,734,1202.5,734,1202.5z"/>
	<path class="st1" d="M1935.2,780.3c-0.4,0.2-0.8,0.5-1.2,0.7c0.3,0,0.6,0.1,0.8,0c0.2-0.1,0.4-0.3,0.6-0.5
		C1935.5,780.5,1935.2,780.3,1935.2,780.3z"/>
	<path class="st1" d="M740,1203.1c-1.9-0.8-4.2,2.9-6-0.5c0,0,0,0.2,0,0.1C736,1202.8,738,1202.9,740,1203.1L740,1203.1z"/>
	<path class="st1" d="M1935.7,777c1.4,1.3,0.9,2.4-0.5,3.3c0,0,0.3,0.3,0.3,0.3c0.1-1.2,0.3-2.3,0.4-3.5
		C1935.8,777,1935.7,777,1935.7,777z"/>
	<path class="st1" d="M737.9,778.4c0.2,0.2,0.4,0.5,0.6,0.7c-0.2,0.2-0.5,0.5-0.7,0.5c-0.2,0-0.4-0.4-0.6-0.6
		C737.4,778.8,737.7,778.6,737.9,778.4z"/>
	<path class="st1" d="M740,1203.1c0-0.3,0-0.8-0.2-1c-0.8-0.8-0.7-1.1,0.4-0.8C739.5,1201.9,739.4,1202.4,740,1203.1
		C740,1203.1,740,1203.1,740,1203.1z"/>
	<path class="st1" d="M1934.9,1202.3c0-0.2-0.1-0.3-0.1-0.5c0,0-0.1,0.1-0.1,0.1c0.1,0.2,0.1,0.4,0.2,0.6
		C1934.8,1202.5,1934.9,1202.3,1934.9,1202.3z"/>
	<path class="st1" d="M2072.4,516.6c0.7,0.4,1.4,0.8,2.1,1.2c-0.2,0.2-0.4,0.7-0.6,0.7c-1.1-0.2-1.5-1-1.4-2
		C2072.4,516.4,2072.4,516.6,2072.4,516.6z"/>
	<path class="st1" d="M598.7,518.3c-1-0.2-1.8-0.8-1-1.6c0.8-0.9,1.4,0,1.8,0.8C599.3,517.7,599,518,598.7,518.3z"/>
</g>
</svg>
